<svg width="37" height="37" viewBox="0 0 37 37" fill="none" xmlns="http://www.w3.org/2000/svg">
<path d="M0.5 10.3364C0.5 4.81358 4.97715 0.336426 10.5 0.336426H26.5C32.0228 0.336426 36.5 4.81358 36.5 10.3364V26.3364C36.5 31.8593 32.0228 36.3364 26.5 36.3364H10.5C4.97715 36.3364 0.5 31.8593 0.5 26.3364V10.3364Z" fill="white"/>
<g clip-path="url(#clip0_1_813)">
<path d="M11.8721 27.3364H6.89643V13.3161H11.8721V27.3364ZM9.38161 11.4036C7.79054 11.4036 6.5 10.2505 6.5 8.85832C6.5 8.1896 6.8036 7.54827 7.344 7.07542C7.88441 6.60256 8.61736 6.33691 9.38161 6.33691C10.1459 6.33691 10.8788 6.60256 11.4192 7.07542C11.9596 7.54827 12.2632 8.1896 12.2632 8.85832C12.2632 10.2505 10.9721 11.4036 9.38161 11.4036ZM30.4946 27.3364H25.5296V20.5114C25.5296 18.8849 25.4921 16.7989 22.9427 16.7989C20.3557 16.7989 19.9593 18.5661 19.9593 20.3943V27.3364H14.9889V13.3161H19.7611V15.2286H19.8307C20.495 14.1271 22.1177 12.9646 24.5386 12.9646C29.5743 12.9646 30.5 15.8661 30.5 19.6349V27.3364H30.4946Z" fill="#275D84"/>
</g>
<defs>
<clipPath id="clip0_1_813">
<rect width="24" height="24" fill="white" transform="translate(6.5 6.33643)"/>
</clipPath>
</defs>
</svg>
