<svg width="81" height="81" viewBox="0 0 81 81" fill="none" xmlns="http://www.w3.org/2000/svg">
<path d="M0.5 15.5C0.5 7.21573 7.21573 0.5 15.5 0.5H65.5C73.7843 0.5 80.5 7.21573 80.5 15.5V65.5C80.5 73.7843 73.7843 80.5 65.5 80.5H15.5C7.21573 80.5 0.5 73.7843 0.5 65.5V15.5Z" fill="#FEF7EF"/>
<g clip-path="url(#clip0_1_616)">
<path d="M57.5086 32.4915L54.2672 35.7329C53.9367 36.0634 53.4024 36.0634 53.0719 35.7329L45.2672 27.9282C44.9367 27.5978 44.9367 27.0634 45.2672 26.7329L48.5086 23.4915C49.8235 22.1767 51.961 22.1767 53.2828 23.4915L57.5086 27.7173C58.8305 29.0321 58.8305 31.1696 57.5086 32.4915ZM42.4828 29.5173L24.0188 47.9813L22.5281 56.5243C22.3242 57.6774 23.3297 58.6759 24.4828 58.479L33.0258 56.9813L51.4899 38.5173C51.8203 38.1868 51.8203 37.6524 51.4899 37.322L43.6852 29.5173C43.3477 29.1868 42.8133 29.1868 42.4828 29.5173ZM31.2258 46.3993C30.8391 46.0126 30.8391 45.3938 31.2258 45.0071L42.0539 34.179C42.4406 33.7923 43.0594 33.7923 43.4461 34.179C43.8328 34.5657 43.8328 35.1845 43.4461 35.5712L32.618 46.3993C32.2313 46.786 31.6125 46.786 31.2258 46.3993ZM28.6875 52.3126H32.0625V54.8649L27.5274 55.6595L25.3406 53.4728L26.1352 48.9376H28.6875V52.3126Z" fill="#EE951A"/>
</g>
<defs>
<clipPath id="clip0_1_616">
<rect width="36" height="36" fill="white" transform="translate(22.5 22.5)"/>
</clipPath>
</defs>
</svg>
