<svg width="37" height="37" viewBox="0 0 37 37" fill="none" xmlns="http://www.w3.org/2000/svg">
<path d="M0.5 10.3364C0.5 4.81358 4.97715 0.336426 10.5 0.336426H26.5C32.0228 0.336426 36.5 4.81358 36.5 10.3364V26.3364C36.5 31.8593 32.0228 36.3364 26.5 36.3364H10.5C4.97715 36.3364 0.5 31.8593 0.5 26.3364V10.3364Z" fill="white"/>
<g clip-path="url(#clip0_1_790)">
<path d="M30.5 16.176C28.1415 16.1809 25.8408 15.5373 23.923 14.3361V22.7136C23.9224 24.2652 23.3804 25.7797 22.3695 27.0545C21.3586 28.3293 19.9271 29.3036 18.2662 29.8473C16.6054 30.391 14.7944 30.478 13.0755 30.0968C11.3566 29.7156 9.81166 28.8843 8.64729 27.714C7.48291 26.5438 6.75459 25.0904 6.55971 23.5482C6.36483 22.006 6.71269 20.4485 7.55676 19.0839C8.40083 17.7194 9.70089 16.6128 11.2831 15.9122C12.8653 15.2116 14.6542 14.9504 16.4107 15.1635V19.3771C15.607 19.1558 14.7439 19.1625 13.9447 19.3961C13.1455 19.6297 12.4511 20.0783 11.9607 20.6778C11.4703 21.2773 11.2089 21.997 11.2138 22.7343C11.2188 23.4715 11.4899 24.1886 11.9883 24.783C12.4868 25.3774 13.1872 25.8188 13.9894 26.0441C14.7917 26.2695 15.6548 26.2672 16.4556 26.0377C17.2563 25.8083 17.9537 25.3632 18.4481 24.7663C18.9425 24.1693 19.2088 23.4509 19.2088 22.7136V6.33643H23.923C23.9198 6.68477 23.9531 7.03264 24.0227 7.37564C24.1865 8.14134 24.5271 8.86974 25.0237 9.5163C25.5203 10.1629 26.1624 10.714 26.9107 11.136C27.9754 11.7519 29.2236 12.0803 30.5 12.08V16.176Z" fill="#275D84"/>
</g>
<defs>
<clipPath id="clip0_1_790">
<rect width="24" height="24" fill="white" transform="translate(6.5 6.33643)"/>
</clipPath>
</defs>
</svg>
