<svg width="37" height="37" viewBox="0 0 37 37" fill="none" xmlns="http://www.w3.org/2000/svg">
<path d="M0.5 10.3364C0.5 4.81358 4.97715 0.336426 10.5 0.336426H26.5C32.0228 0.336426 36.5 4.81358 36.5 10.3364V26.3364C36.5 31.8593 32.0228 36.3364 26.5 36.3364H10.5C4.97715 36.3364 0.5 31.8593 0.5 26.3364V10.3364Z" fill="white"/>
<g clip-path="url(#clip0_1_766)">
<path d="M26.9054 10.888C24.6607 8.91924 21.6714 7.83643 18.4946 7.83643C11.9375 7.83643 6.60179 12.5052 6.60179 18.2427C6.60179 20.0755 7.14821 21.8661 8.1875 23.4458L6.5 28.8364L12.8054 27.388C14.5411 28.2177 16.4964 28.6536 18.4893 28.6536H18.4946C25.0464 28.6536 30.5 23.9849 30.5 18.2474C30.5 15.4677 29.15 12.8567 26.9054 10.888ZM18.4946 26.9005C16.7161 26.9005 14.975 26.4833 13.4589 25.6958L13.1 25.5083L9.36071 26.3661L10.3571 23.1739L10.1214 22.8458C9.13036 21.4677 8.61071 19.8786 8.61071 18.2427C8.61071 13.4755 13.0464 9.59424 18.5 9.59424C21.1411 9.59424 23.6214 10.4942 25.4857 12.1302C27.35 13.7661 28.4964 15.9364 28.4911 18.2474C28.4911 23.0192 23.9429 26.9005 18.4946 26.9005ZM23.9161 20.4224C23.6214 20.2911 22.1589 19.663 21.8857 19.5786C21.6125 19.4896 21.4143 19.4474 21.2161 19.7099C21.0179 19.9724 20.45 20.5536 20.2732 20.7317C20.1018 20.9052 19.925 20.9286 19.6304 20.7974C17.8839 20.0333 16.7375 19.4333 15.5857 17.7036C15.2804 17.2442 15.8911 17.2771 16.4589 16.2833C16.5554 16.1099 16.5071 15.9599 16.4321 15.8286C16.3571 15.6974 15.7625 14.4177 15.5161 13.8974C15.275 13.3911 15.0286 13.4614 14.8464 13.4521C14.675 13.4427 14.4768 13.4427 14.2786 13.4427C14.0804 13.4427 13.7589 13.5083 13.4857 13.7661C13.2125 14.0286 12.4464 14.6567 12.4464 15.9364C12.4464 17.2161 13.5125 18.4536 13.6571 18.6271C13.8071 18.8005 15.7518 21.4255 18.7357 22.5552C20.6214 23.2677 21.3607 23.3286 22.3036 23.2067C22.8768 23.1317 24.0607 22.5786 24.3071 21.9692C24.5536 21.3599 24.5536 20.8396 24.4786 20.7317C24.4089 20.6146 24.2107 20.5489 23.9161 20.4224Z" fill="#275D84"/>
</g>
<defs>
<clipPath id="clip0_1_766">
<rect width="24" height="24" fill="white" transform="translate(6.5 6.33643)"/>
</clipPath>
</defs>
</svg>
