<svg width="37" height="37" viewBox="0 0 37 37" fill="none" xmlns="http://www.w3.org/2000/svg">
<path d="M0.5 10.3364C0.5 4.81358 4.97715 0.336426 10.5 0.336426H26.5C32.0228 0.336426 36.5 4.81358 36.5 10.3364V26.3364C36.5 31.8593 32.0228 36.3364 26.5 36.3364H10.5C4.97715 36.3364 0.5 31.8593 0.5 26.3364V10.3364Z" fill="white"/>
<g clip-path="url(#clip0_1_800)">
<path d="M18.5053 12.9457C15.0982 12.9457 12.35 15.3504 12.35 18.3316C12.35 21.3129 15.0982 23.7176 18.5053 23.7176C21.9125 23.7176 24.6607 21.3129 24.6607 18.3316C24.6607 15.3504 21.9125 12.9457 18.5053 12.9457ZM18.5053 21.8332C16.3036 21.8332 14.5036 20.2629 14.5036 18.3316C14.5036 16.4004 16.2982 14.8301 18.5053 14.8301C20.7125 14.8301 22.5071 16.4004 22.5071 18.3316C22.5071 20.2629 20.7071 21.8332 18.5053 21.8332ZM26.3482 12.7254C26.3482 13.4238 25.7053 13.9816 24.9125 13.9816C24.1143 13.9816 23.4768 13.4191 23.4768 12.7254C23.4768 12.0316 24.1196 11.4691 24.9125 11.4691C25.7053 11.4691 26.3482 12.0316 26.3482 12.7254ZM30.425 14.0004C30.3339 12.3176 29.8946 10.827 28.4857 9.59883C27.0821 8.3707 25.3786 7.98633 23.4553 7.90195C21.4732 7.80352 15.5321 7.80352 13.55 7.90195C11.6321 7.98164 9.92856 8.36602 8.51963 9.59414C7.1107 10.8223 6.67678 12.3129 6.58035 13.9957C6.46785 15.7301 6.46785 20.9285 6.58035 22.6629C6.67142 24.3457 7.1107 25.8363 8.51963 27.0645C9.92856 28.2926 11.6268 28.677 13.55 28.7613C15.5321 28.8598 21.4732 28.8598 23.4553 28.7613C25.3786 28.6816 27.0821 28.2973 28.4857 27.0645C29.8893 25.8363 30.3286 24.3457 30.425 22.6629C30.5375 20.9285 30.5375 15.7348 30.425 14.0004ZM27.8643 24.5238C27.4464 25.4426 26.6375 26.1504 25.5821 26.5207C24.0018 27.0691 20.2518 26.9426 18.5053 26.9426C16.7589 26.9426 13.0036 27.0645 11.4286 26.5207C10.3786 26.1551 9.56963 25.4473 9.14642 24.5238C8.51963 23.141 8.66428 19.8598 8.66428 18.3316C8.66428 16.8035 8.52499 13.5176 9.14642 12.1395C9.56428 11.2207 10.3732 10.5129 11.4286 10.1426C13.0089 9.59414 16.7589 9.7207 18.5053 9.7207C20.2518 9.7207 24.0071 9.59883 25.5821 10.1426C26.6321 10.5082 27.4411 11.216 27.8643 12.1395C28.4911 13.5223 28.3464 16.8035 28.3464 18.3316C28.3464 19.8598 28.4911 23.1457 27.8643 24.5238Z" fill="#275D84"/>
</g>
<defs>
<clipPath id="clip0_1_800">
<rect width="24" height="24" fill="white" transform="translate(6.5 6.33643)"/>
</clipPath>
</defs>
</svg>
