<svg width="81" height="81" viewBox="0 0 81 81" fill="none" xmlns="http://www.w3.org/2000/svg">
<path d="M0.5 15.5C0.5 7.21573 7.21573 0.5 15.5 0.5H65.5C73.7843 0.5 80.5 7.21573 80.5 15.5V65.5C80.5 73.7843 73.7843 80.5 65.5 80.5H15.5C7.21573 80.5 0.5 73.7843 0.5 65.5V15.5Z" fill="#F3F8FB"/>
<g clip-path="url(#clip0_1_606)">
<path d="M47.25 29.25C47.25 25.522 44.228 22.5 40.5 22.5C36.772 22.5 33.75 25.522 33.75 29.25C33.75 32.978 36.772 36 40.5 36C44.228 36 47.25 32.978 47.25 29.25ZM38.9243 39.4523C34.7527 36.8986 27.9956 36.1969 24.5953 36.0035C23.4527 35.9388 22.5 36.8093 22.5 37.9083V53.5739C22.5 54.5815 23.3149 55.4217 24.3626 55.4759C27.4324 55.6369 33.6431 56.2268 37.9357 58.3889C38.5945 58.7208 39.3757 58.2687 39.3757 57.5543V40.2581C39.375 39.9298 39.2126 39.6288 38.9243 39.4523ZM56.4047 36.0035C53.0051 36.1962 46.2473 36.8986 42.0764 39.4523C41.7881 39.6288 41.6257 39.9417 41.6257 40.2701V57.5522C41.6257 58.2687 42.409 58.7215 43.0699 58.3889C47.3618 56.2289 53.569 55.639 56.6381 55.478C57.6858 55.4231 58.5007 54.5829 58.5007 53.5753V37.9083C58.5 36.8093 57.5473 35.9388 56.4047 36.0035Z" fill="#275D84"/>
</g>
<defs>
<clipPath id="clip0_1_606">
<rect width="36" height="36" fill="white" transform="translate(22.5 22.5)"/>
</clipPath>
</defs>
</svg>
