<svg width="115" height="120" viewBox="0 0 115 120" fill="none" xmlns="http://www.w3.org/2000/svg">
<path d="M0.179871 20C0.179871 8.95431 9.13418 0 20.1799 0H114.18V80C114.18 102.091 96.2713 120 74.1799 120H0.179871V20Z" fill="#F0F9F3"/>
<g clip-path="url(#clip0_1_651)">
<mask id="mask0_1_651" style="mask-type:luminance" maskUnits="userSpaceOnUse" x="32" y="32" width="50" height="50">
<path d="M81.522 32H32.1799V82H81.522V32Z" fill="white"/>
</mask>
<g mask="url(#mask0_1_651)">
<path d="M53.5614 78.0449C54.4866 78.416 55.4803 77.6445 55.4803 76.5312V39.6758C55.4803 39.2656 55.3432 38.8555 55.052 38.6016C53.373 37.0781 49.5181 35.125 44.5154 35.125C40.1894 35.125 36.1461 36.4238 33.7304 37.4785C32.7624 37.9082 32.1799 39.0019 32.1799 40.1836V76.3457C32.1799 77.5078 33.2764 78.3184 34.2444 77.957C36.9428 76.9316 41.2173 75.75 44.5154 75.75C47.4193 75.75 51.2828 77.1172 53.5614 78.0449ZM60.1404 78.0449C62.4191 77.1172 66.2825 75.75 69.1865 75.75C72.4845 75.75 76.7591 76.9316 79.4575 77.957C80.4255 78.3281 81.522 77.5078 81.522 76.3457V40.1836C81.522 39.0019 80.9394 37.9082 79.9714 37.4883C77.5557 36.4238 73.5124 35.125 69.1865 35.125C64.1837 35.125 60.3288 37.0781 58.6499 38.6016C58.3672 38.8555 58.2215 39.2656 58.2215 39.6758V76.5312C58.2215 77.6445 59.2238 78.416 60.1404 78.0449Z" fill="url(#paint0_linear_1_651)"/>
</g>
</g>
<defs>
<linearGradient id="paint0_linear_1_651" x1="40.9518" y1="35" x2="83.4054" y2="74.4306" gradientUnits="userSpaceOnUse">
<stop stop-color="#005417"/>
<stop offset="0.526042" stop-color="#00A92F"/>
<stop offset="1" stop-color="#AAE2BA"/>
</linearGradient>
<clipPath id="clip0_1_651">
<rect width="50" height="50" fill="white" transform="translate(32.1799 32)"/>
</clipPath>
</defs>
</svg>
