<svg width="114" height="120" viewBox="0 0 114 120" fill="none" xmlns="http://www.w3.org/2000/svg">
<path d="M0 20C0 8.95431 8.95431 0 20 0H114V80C114 102.091 96.0914 120 74 120H0V20Z" fill="#F0F9F3"/>
<g clip-path="url(#clip0_1_637)">
<mask id="mask0_1_637" style="mask-type:luminance" maskUnits="userSpaceOnUse" x="32" y="32" width="50" height="50">
<path d="M81.7159 32H32V82H81.7159V32Z" fill="white"/>
</mask>
<g mask="url(#mask0_1_637)">
<path d="M42.6534 32C36.7718 32 32 36.1992 32 41.375V72.625C32 77.8008 36.7718 82 42.6534 82H74.6136H78.1648C80.129 82 81.7159 80.6035 81.7159 78.875C81.7159 77.1465 80.129 75.75 78.1648 75.75V69.5C80.129 69.5 81.7159 68.1035 81.7159 66.375V35.125C81.7159 33.3965 80.129 32 78.1648 32H74.6136H42.6534ZM42.6534 69.5H71.0625V75.75H42.6534C40.6892 75.75 39.1023 74.3535 39.1023 72.625C39.1023 70.8965 40.6892 69.5 42.6534 69.5ZM46.2045 46.0625C46.2045 45.2031 47.0035 44.5 47.9801 44.5H69.2869C70.2635 44.5 71.0625 45.2031 71.0625 46.0625C71.0625 46.9219 70.2635 47.625 69.2869 47.625H47.9801C47.0035 47.625 46.2045 46.9219 46.2045 46.0625ZM47.9801 50.75H69.2869C70.2635 50.75 71.0625 51.4531 71.0625 52.3125C71.0625 53.1719 70.2635 53.875 69.2869 53.875H47.9801C47.0035 53.875 46.2045 53.1719 46.2045 52.3125C46.2045 51.4531 47.0035 50.75 47.9801 50.75Z" fill="url(#paint0_linear_1_637)"/>
</g>
</g>
<defs>
<linearGradient id="paint0_linear_1_637" x1="35.4091" y1="32" x2="85.8701" y2="100.369" gradientUnits="userSpaceOnUse">
<stop stop-color="#005417"/>
<stop offset="0.5" stop-color="#00A92F"/>
<stop offset="1" stop-color="#AAE2BA"/>
</linearGradient>
<clipPath id="clip0_1_637">
<rect width="50" height="50" fill="white" transform="translate(32 32)"/>
</clipPath>
</defs>
</svg>
