<svg width="81" height="81" viewBox="0 0 81 81" fill="none" xmlns="http://www.w3.org/2000/svg">
<path d="M0.5 15.5C0.5 7.21573 7.21573 0.5 15.5 0.5H65.5C73.7843 0.5 80.5 7.21573 80.5 15.5V65.5C80.5 73.7843 73.7843 80.5 65.5 80.5H15.5C7.21573 80.5 0.5 73.7843 0.5 65.5V15.5Z" fill="#F0F9F3"/>
<g clip-path="url(#clip0_1_626)">
<path d="M34.2 47.25C34.0656 47.25 33.9311 47.2746 33.8029 47.3266C33.0739 47.6227 32.3072 47.8125 31.5 47.8125C30.6928 47.8125 29.9261 47.6227 29.1966 47.3266C29.0683 47.2746 28.9344 47.25 28.8 47.25C25.3091 47.25 22.4814 50.7994 22.5 55.1686C22.5079 57.015 23.7223 58.5 25.2 58.5H37.8C39.2777 58.5 40.4921 57.015 40.5 55.1686C40.5186 50.7994 37.6909 47.25 34.2 47.25ZM31.5 45C34.4824 45 36.9 41.978 36.9 38.25C36.9 34.522 34.4824 31.5 31.5 31.5C28.5176 31.5 26.1 34.522 26.1 38.25C26.1 41.978 28.5176 45 31.5 45ZM55.8 22.5H34.2C32.7111 22.5 31.5 24.0645 31.5 25.9868V29.25C32.8174 29.25 34.0369 29.7267 35.1 30.5016V27H54.9V47.25H51.3V42.75H44.1V47.25H39.8115C40.8859 48.4235 41.6745 49.9732 42.0441 51.75H55.8C57.2889 51.75 58.5 50.1855 58.5 48.2632V25.9868C58.5 24.0645 57.2889 22.5 55.8 22.5Z" fill="#00A92F"/>
</g>
<defs>
<clipPath id="clip0_1_626">
<rect width="36" height="36" fill="white" transform="translate(22.5 22.5)"/>
</clipPath>
</defs>
</svg>
