<svg width="37" height="37" viewBox="0 0 37 37" fill="none" xmlns="http://www.w3.org/2000/svg">
<path d="M0.5 10.3364C0.5 4.81358 4.97715 0.336426 10.5 0.336426H26.5C32.0228 0.336426 36.5 4.81358 36.5 10.3364V26.3364C36.5 31.8593 32.0228 36.3364 26.5 36.3364H10.5C4.97715 36.3364 0.5 31.8593 0.5 26.3364V10.3364Z" fill="white"/>
<g clip-path="url(#clip0_1_778)">
<path d="M18.5 6.71143C11.871 6.71143 6.5 11.9146 6.5 18.3364C6.5 24.7583 11.871 29.9614 18.5 29.9614C25.129 29.9614 30.5 24.7583 30.5 18.3364C30.5 11.9146 25.129 6.71143 18.5 6.71143ZM24.3935 14.6755L22.4242 23.6661C22.279 24.3036 21.8871 24.4583 21.3403 24.1583L18.3403 22.0161L16.8935 23.3661C16.7339 23.5208 16.5984 23.6521 16.2887 23.6521L16.5016 20.6942L22.0613 15.8286C22.3032 15.6224 22.0081 15.5052 21.6887 15.7114L14.8177 19.9021L11.8565 19.0067C11.2129 18.8099 11.1984 18.3833 11.9919 18.0833L23.5613 13.7614C24.0984 13.5739 24.5677 13.888 24.3935 14.6755Z" fill="#275D84"/>
</g>
<defs>
<clipPath id="clip0_1_778">
<rect width="24" height="24" fill="white" transform="translate(6.5 6.33643)"/>
</clipPath>
</defs>
</svg>
