<svg width="37" height="37" viewBox="0 0 37 37" fill="none" xmlns="http://www.w3.org/2000/svg">
<path d="M0.5 10.3364C0.5 4.81358 4.97715 0.336426 10.5 0.336426H26.5C32.0228 0.336426 36.5 4.81358 36.5 10.3364V26.3364C36.5 31.8593 32.0228 36.3364 26.5 36.3364H10.5C4.97715 36.3364 0.5 31.8593 0.5 26.3364V10.3364Z" fill="white"/>
<path d="M29.4023 12.1528C29.1406 11.0442 28.3695 10.1711 27.3905 9.87483C25.6159 9.33643 18.5 9.33643 18.5 9.33643C18.5 9.33643 11.3842 9.33643 9.60956 9.87483C8.63051 10.1712 7.85943 11.0442 7.59772 12.1528C7.12222 14.1622 7.12222 18.3546 7.12222 18.3546C7.12222 18.3546 7.12222 22.547 7.59772 24.5564C7.85943 25.665 8.63051 26.5017 9.60956 26.798C11.3842 27.3364 18.5 27.3364 18.5 27.3364C18.5 27.3364 25.6158 27.3364 27.3905 26.798C28.3695 26.5017 29.1406 25.665 29.4023 24.5564C29.8778 22.547 29.8778 18.3546 29.8778 18.3546C29.8778 18.3546 29.8778 14.1622 29.4023 12.1528ZM16.1727 22.161V14.5482L22.1202 18.3547L16.1727 22.161Z" fill="#275D84"/>
</svg>
