<svg xmlns="http://www.w3.org/2000/svg" viewBox="0 0 64 64" id="book"><path d="M52 4H15a6 6 0 0 0-6 6v45a5.2 5.2 0 0 0 5.23 5H33a1 1 0 0 0 0-2H14.23A3.18 3.18 0 0 1 11 55v-.27a2.73 2.73 0 0 1 .11-.6 3 3 0 0 1 .12-.3c0-.08.07-.16.1-.23a3.73 3.73 0 0 1 .52-.71A3 3 0 0 1 14 52h38a2.6 2.6 0 0 0 .56-.06h.18l.26-.07V53a1 1 0 0 1-1 1H14a1 1 0 0 0 0 2h38a3 3 0 0 0 1-.18V57a1 1 0 0 1-1 1H42a1 1 0 0 0 0 2h10a3 3 0 0 0 3-3V7a3 3 0 0 0-3-3ZM13.1 50.09l-.28.07a4.43 4.43 0 0 0-.59.18c-.1 0-.2.08-.3.12a5.21 5.21 0 0 0-.52.28l-.27.17L11 51V10a4 4 0 0 1 4-4v44h-1a4.43 4.43 0 0 0-.9.09ZM17 50V6h35a1 1 0 0 1 1 1v42a1 1 0 0 1-1 1Z"></path><path d="M46 14H24a1 1 0 0 0-1 1v7a1 1 0 0 0 1 1h22a1 1 0 0 0 1-1v-7a1 1 0 0 0-1-1zm-1 7H25v-5h20zm-1 17H26a1 1 0 0 0 0 2h18a1 1 0 0 0 0-2zm0 5H26a1 1 0 0 0 0 2h18a1 1 0 0 0 0-2zm-6 15h-1a1 1 0 0 0 0 2h1a1 1 0 0 0 0-2z"></path></svg>