<svg xmlns="http://www.w3.org/2000/svg" width="100" height="100" viewBox="0 0 100 100" id="computer"><g><path d="M84 17H16c-3.3 0-6 2.7-6 6v42c0 3.3 2.7 6 6 6h22v4.2c-.1.4-.9 1.5-1.3 2-1.1 1.4-2.2 2.8-1.4 4.4.3.7 1.1 1.4 2.7 1.4h23c1 0 3.3 0 4.1-1.8.8-1.8-.6-3.2-1.8-4.5-.4-.5-1.1-1.2-1.3-1.6V71h22c3.3 0 6-2.7 6-6V23c0-3.3-2.7-6-6-6zM40.3 79c.9-1.1 1.7-2.4 1.7-3.8V71h16v4.2c0 1.4 1 2.7 2 3.8H40.3zM86 65c0 1.1-.9 2-2 2H16c-1.1 0-2-.9-2-2v-6h72v6zm0-10H14V23c0-1.1.9-2 2-2h68c1.1 0 2 .9 2 2v32z"></path></g><g><path fill="#00F" d="M524-370v1684h-1784V-370H524m8-8h-1800v1700H532V-378z"></path></g></svg>