<svg xmlns="http://www.w3.org/2000/svg" viewBox="0 0 20 20" id="open-book"><path d="M8.63 5.21a13.256 13.256 0 0 0-5.49-.77.632.632 0 0 0-.61.64v9.05a.619.619 0 0 0 .62.63 23.923 23.923 0 0 1 6.35.82V6.65a1.583 1.583 0 0 0-.87-1.44Zm-.44 6.28a.51.51 0 0 1-.46.31.711.711 0 0 1-.2-.04 9.636 9.636 0 0 0-3.24-.51.5.5 0 0 1 .01-1h.01a10.716 10.716 0 0 1 3.61.58.517.517 0 0 1 .27.66Zm0-2.27a.5.5 0 0 1-.46.3.476.476 0 0 1-.2-.04 9.852 9.852 0 0 0-3.24-.51.49.49 0 0 1-.49-.51.506.506 0 0 1 .5-.49h.01a10.683 10.683 0 0 1 3.61.59.517.517 0 0 1 .27.66Zm0-2.28a.51.51 0 0 1-.46.31.476.476 0 0 1-.2-.04 8.266 8.266 0 0 0-2.43-.47.504.504 0 0 1-.46-.54.513.513 0 0 1 .53-.46 9.101 9.101 0 0 1 2.75.55.505.505 0 0 1 .27.65Zm8.67-2.5c-.23-.01-.49-.02-.78-.02a11.918 11.918 0 0 0-4.71.79 1.583 1.583 0 0 0-.87 1.44v8.93a23.923 23.923 0 0 1 6.35-.82.619.619 0 0 0 .62-.63V5.08a.632.632 0 0 0-.61-.64Zm-2.57 6.9a6.903 6.903 0 0 0-1.82.42.711.711 0 0 1-.2.04.51.51 0 0 1-.46-.31.517.517 0 0 1 .27-.66 8.185 8.185 0 0 1 2.09-.48.483.483 0 0 1 .55.44.495.495 0 0 1-.43.55Zm1.42-2.37a9.852 9.852 0 0 0-3.24.51.476.476 0 0 1-.2.04.5.5 0 0 1-.46-.3.517.517 0 0 1 .27-.66 10.683 10.683 0 0 1 3.61-.59h.01a.506.506 0 0 1 .5.49.49.49 0 0 1-.49.51Zm0-2.27a9.593 9.593 0 0 0-3.24.51.476.476 0 0 1-.2.04.5.5 0 0 1-.19-.96 10.44 10.44 0 0 1 3.61-.59h.01a.506.506 0 0 1 .5.49.49.49 0 0 1-.49.51Z"></path></svg>