<?xml version="1.0" encoding="UTF-8"?>
<svg version="1.1" xmlns="http://www.w3.org/2000/svg" width="100%" height="100%" viewBox="0 0 256 256">
<path d="M0 0 C1.08152344 0.01417969 2.16304687 0.02835937 3.27734375 0.04296875 C4.90349609 0.05263672 4.90349609 0.05263672 6.5625 0.0625 C9.21484375 0.23046875 9.21484375 0.23046875 10.21484375 1.23046875 C10.32494379 3.39752799 10.36398298 5.56821594 10.37597656 7.73803711 C10.38342392 8.75756218 10.38342392 8.75756218 10.39102173 9.79768372 C10.40567559 12.05523678 10.41245032 14.31271961 10.41796875 16.5703125 C10.42371715 18.13350935 10.42947491 19.69670617 10.4352417 21.25990295 C10.4457606 24.54102915 10.45159756 27.82213078 10.45507812 31.10327148 C10.46056757 35.314795 10.48460117 39.52599595 10.51305008 43.73741817 C10.53164089 46.96725931 10.53688012 50.19702217 10.538414 53.42691231 C10.54144868 54.9799126 10.5495045 56.53291125 10.56259918 58.0858593 C10.57958776 60.25532709 10.57779779 62.4239992 10.57128906 64.59350586 C10.57675751 66.44763344 10.57675751 66.44763344 10.58233643 68.33921814 C10.46106384 69.29333084 10.33979126 70.24744354 10.21484375 71.23046875 C7.09284175 73.31180342 6.28217386 73.50425095 2.71484375 73.48046875 C1.5546875 73.48820312 1.5546875 73.48820312 0.37109375 73.49609375 C-1.78515625 73.23046875 -1.78515625 73.23046875 -4.78515625 71.23046875 C-6.81435468 71.48770844 -6.81435468 71.48770844 -8.78515625 72.23046875 C-15.32045771 74.40890257 -22.71023068 73.98097268 -29.0078125 71.19921875 C-36.28177712 67.23450836 -39.26601297 61.7878986 -41.78515625 54.23046875 C-43.06331148 34.40858594 -43.06331148 34.40858594 -36.08984375 26.24609375 C-30.68329753 20.94899178 -24.63289297 18.26484986 -17.03125 18.2109375 C-12.80430436 18.53703374 -10.37182431 18.83935671 -6.78515625 21.23046875 C-5.57081544 15.96163466 -5.42907939 10.69741757 -5.1640625 5.3125 C-4.67352466 1.32245508 -4.05999253 0.33596011 0 0 Z M-22.78515625 35.23046875 C-25.59099096 38.71880379 -27.56457781 41.70861082 -27.78515625 46.23046875 C-26.97007235 51.83417057 -25.01555769 54.75246204 -20.6484375 58.125 C-17.78221032 59.82550795 -16.0279904 59.92043346 -12.78515625 59.23046875 C-8.8619407 57.34430743 -7.17699461 56.08229128 -5.34765625 52.10546875 C-4.43546863 45.82150958 -4.18546527 40.47003613 -7.97265625 35.16796875 C-13.44752502 31.39639249 -17.28636223 31.52475974 -22.78515625 35.23046875 Z " fill="#343C48" transform="translate(48.78515625,81.76953125)"/>
<path d="M0 0 C3.0625 2.1875 3.0625 2.1875 4.0625 5.1875 C5.70801962 5.90477778 7.37672289 6.57075228 9.0625 7.1875 C11.0625 9.1875 11.0625 9.1875 11.3125 12.6875 C11.0625 16.1875 11.0625 16.1875 9.0625 18.1875 C5.73484581 18.03081673 2.48173673 17.71240214 -0.8203125 17.2890625 C-4.87027357 16.89761645 -6.58474181 16.9996624 -10.3046875 18.98046875 C-14.74001829 22.69851311 -16.60908179 25.69827411 -17.35546875 31.35546875 C-17.67279148 38.34625874 -17.67279148 38.34625874 -14.625 44.4375 C-9.80688139 47.57487956 -5.51575609 47.67256575 0.0625 47.1875 C6.50839442 45.40932223 10.46129509 41.68663723 14.0625 36.1875 C15.10718564 33.46484583 15.59626643 31.08850888 16.0625 28.1875 C16.3925 28.1875 16.7225 28.1875 17.0625 28.1875 C16.99341583 33.20507186 16.90534981 38.2218268 16.80004883 43.23876953 C16.76689364 44.94375512 16.73883263 46.64884798 16.71606445 48.35400391 C16.68234432 50.81198634 16.63002206 53.26899406 16.57421875 55.7265625 C16.56463387 56.86129501 16.56463387 56.86129501 16.55485535 58.01895142 C16.42471105 62.75480018 15.79201652 66.15740447 13.0625 70.1875 C8.64158864 74.02998183 4.98130986 74.75809386 -0.70703125 74.61328125 C-1.78944344 74.60834908 -1.78944344 74.60834908 -2.89372253 74.60331726 C-4.40734991 74.59295213 -5.92093937 74.57309739 -7.43432617 74.54418945 C-9.760474 74.49980013 -12.08558884 74.48270181 -14.41210938 74.47070312 C-15.88543171 74.45729083 -17.35874127 74.44237112 -18.83203125 74.42578125 C-19.87880791 74.41470085 -19.87880791 74.41470085 -20.94673157 74.40339661 C-25.81913018 74.30586982 -25.81913018 74.30586982 -26.9375 73.1875 C-27.17478814 66.66207627 -27.17478814 66.66207627 -25.9375 64.1875 C-25.23665283 64.20321045 -24.53580566 64.2189209 -23.8137207 64.23510742 C-20.62589649 64.29762412 -17.43820149 64.33654381 -14.25 64.375 C-13.14720703 64.40013672 -12.04441406 64.42527344 -10.90820312 64.45117188 C-9.84150391 64.46083984 -8.77480469 64.47050781 -7.67578125 64.48046875 C-6.69649658 64.4961792 -5.71721191 64.51188965 -4.70825195 64.52807617 C-1.43089048 64.12522841 0.43197899 63.15745229 3.0625 61.1875 C3.87656498 58.70236417 3.87656498 58.70236417 3.875 56 C3.92269531 55.09894531 3.97039062 54.19789063 4.01953125 53.26953125 C4.03371094 52.58246094 4.04789063 51.89539063 4.0625 51.1875 C3.37671875 51.51105469 2.6909375 51.83460938 1.984375 52.16796875 C-5.37748581 54.73674638 -14.7393217 54.10335724 -21.96875 51.23046875 C-26.83350413 48.65330734 -30.1997309 45.91965354 -32.375 40.8125 C-32.560625 39.94625 -32.74625 39.08 -32.9375 38.1875 C-33.9275 38.1875 -34.9175 38.1875 -35.9375 38.1875 C-39.53008657 29.33434024 -40.34006544 21.2800915 -36.91015625 12.21875 C-34.11879123 6.38939333 -29.39347877 2.43264377 -23.9375 -0.8125 C-17.0111357 -3.1212881 -6.6077637 -3.1591863 0 0 Z M4.0625 14.1875 C4.3925 14.8475 4.7225 15.5075 5.0625 16.1875 C5.7225 15.8575 6.3825 15.5275 7.0625 15.1875 C6.0725 14.8575 5.0825 14.5275 4.0625 14.1875 Z " fill="#343C48" transform="translate(126.9375,98.8125)"/>
<path d="M0 0 C0.36328125 2.53125 0.36328125 2.53125 0.3125 5.5 C0.30863281 6.4796875 0.30476563 7.459375 0.30078125 8.46875 C0 11 0 11 -2 13 C-4.58064129 13.14497985 -7.04943884 13.18677545 -9.625 13.125 C-10.33140625 13.11597656 -11.0378125 13.10695313 -11.765625 13.09765625 C-13.51056098 13.07407603 -15.25532295 13.03820461 -17 13 C-15.47139643 16.05720714 -13.10346165 16.19659848 -9.9375 17.3125 C3.30486121 22.29837255 3.30486121 22.29837255 7 28.1875 C8.56591058 34.1575341 8.87431853 39.42561766 6.875 45.3125 C3.99644284 49.43843192 0.86637047 52.37787651 -4 54 C-5.9070425 54.09419688 -7.81719619 54.13071199 -9.7265625 54.1328125 C-10.8403125 54.13410156 -11.9540625 54.13539063 -13.1015625 54.13671875 C-14.26429688 54.13285156 -15.42703125 54.12898438 -16.625 54.125 C-17.79546875 54.12886719 -18.9659375 54.13273437 -20.171875 54.13671875 C-21.28304687 54.13542969 -22.39421875 54.13414062 -23.5390625 54.1328125 C-24.56209473 54.13168457 -25.58512695 54.13055664 -26.63916016 54.12939453 C-29 54 -29 54 -30 53 C-30.09873816 51.00200428 -30.12971799 49.00042842 -30.125 47 C-30.12757813 45.906875 -30.13015625 44.81375 -30.1328125 43.6875 C-30 41 -30 41 -29 40 C-27.44051458 39.84313751 -25.87457332 39.74923361 -24.30859375 39.68359375 C-23.36435547 39.64169922 -22.42011719 39.59980469 -21.44726562 39.55664062 C-20.45404297 39.51732422 -19.46082031 39.47800781 -18.4375 39.4375 C-17.44041016 39.39431641 -16.44332031 39.35113281 -15.41601562 39.30664062 C-12.9441585 39.20019702 -10.4721969 39.09818072 -8 39 C-11.00504068 35.59955924 -13.63747383 34.1205726 -17.875 32.5625 C-23.33809517 30.39058655 -27.92111775 28.35652863 -31.125 23.18359375 C-32.82283492 18.94658607 -32.53244877 14.47386833 -32 10 C-30.25 6.5625 -30.25 6.5625 -28 4 C-27.1646875 2.88625 -27.1646875 2.88625 -26.3125 1.75 C-19.90117314 -3.10181492 -6.6381295 -4.42541967 0 0 Z " fill="#343C48" transform="translate(240,100)"/>
<path d="M0 0 C0.9796875 0.00515625 1.959375 0.0103125 2.96875 0.015625 C3.9484375 0.01046875 4.928125 0.0053125 5.9375 0 C8.46875 0.265625 8.46875 0.265625 10.46875 2.265625 C10.6640625 5.3046875 10.6640625 5.3046875 10.59375 8.890625 C10.57570312 10.07914063 10.55765625 11.26765625 10.5390625 12.4921875 C10.51585937 13.40742187 10.49265625 14.32265625 10.46875 15.265625 C11.45617187 15.24242188 12.44359375 15.21921875 13.4609375 15.1953125 C14.74226563 15.17726563 16.02359375 15.15921875 17.34375 15.140625 C19.25800781 15.10582031 19.25800781 15.10582031 21.2109375 15.0703125 C24.46875 15.265625 24.46875 15.265625 26.46875 17.265625 C26.6640625 19.8671875 26.6640625 19.8671875 26.59375 22.890625 C26.57570312 23.89351562 26.55765625 24.89640625 26.5390625 25.9296875 C26.51585937 26.70054688 26.49265625 27.47140625 26.46875 28.265625 C22.46875 30.265625 22.46875 30.265625 10.46875 30.265625 C10.79875 38.845625 11.12875 47.425625 11.46875 56.265625 C14.7890625 56.4609375 18.109375 56.65625 21.4296875 56.8515625 C24.46875 57.265625 24.46875 57.265625 26.46875 59.265625 C26.69921875 61.578125 26.69921875 61.578125 26.65625 64.265625 C26.64980469 65.1525 26.64335937 66.039375 26.63671875 66.953125 C26.46875 69.265625 26.46875 69.265625 25.46875 71.265625 C22.59317297 71.34700926 19.71992738 71.40630351 16.84375 71.453125 C16.03550781 71.47826172 15.22726563 71.50339844 14.39453125 71.52929688 C9.3412174 71.59092265 5.63363547 71.42137155 1.46875 68.265625 C-4.50447009 60.87902177 -5.38374306 54.38402061 -5.1875 45.109375 C-5.18375366 43.88528931 -5.18000732 42.66120361 -5.17614746 41.40002441 C-5.1627762 38.83167505 -5.13508685 36.263364 -5.09375 33.6953125 C-5.03099542 29.74961841 -5.01175614 25.80552053 -5 21.859375 C-4.98167575 19.35935535 -4.96092926 16.85935202 -4.9375 14.359375 C-4.92475037 12.58451721 -4.92475037 12.58451721 -4.91174316 10.77380371 C-4.89252808 9.68506958 -4.87331299 8.59633545 -4.85351562 7.47460938 C-4.83985962 6.51437866 -4.82620361 5.55414795 -4.81213379 4.56481934 C-4.39729884 1.16915822 -3.36379348 0.35299067 0 0 Z " fill="#343C48" transform="translate(179.53125,82.734375)"/>
<path d="M0 0 C0.96164063 -0.00515625 1.92328125 -0.0103125 2.9140625 -0.015625 C5.375 0.25 5.375 0.25 7.375 2.25 C7.62223816 4.49586487 7.62223816 4.49586487 7.61791992 7.32641602 C7.62099655 8.38413712 7.62407318 9.44185822 7.62724304 10.53163147 C7.62005753 11.67748215 7.61287201 12.82333282 7.60546875 14.00390625 C7.60478142 15.76068947 7.60478142 15.76068947 7.6040802 17.55296326 C7.60105516 20.03198254 7.59316139 22.51099987 7.58081055 24.98999023 C7.56255971 28.80003536 7.56030076 32.60983761 7.56054688 36.41992188 C7.55563171 38.82291878 7.54980339 41.22591403 7.54296875 43.62890625 C7.54185593 44.77678116 7.5407431 45.92465607 7.53959656 47.10731506 C7.53321671 48.161884 7.52683685 49.21645294 7.52026367 50.30297852 C7.51454597 51.70290794 7.51454597 51.70290794 7.50871277 53.13111877 C7.375 55.25 7.375 55.25 6.375 56.25 C4.06506618 56.37557162 1.75081464 56.42575729 -0.5625 56.4375 C-1.82964844 56.45167969 -3.09679687 56.46585938 -4.40234375 56.48046875 C-7.625 56.25 -7.625 56.25 -9.625 54.25 C-9.86550903 52.03536987 -9.86550903 52.03536987 -9.85205078 49.24951172 C-9.85189972 48.20858368 -9.85174866 47.16765564 -9.85159302 46.09518433 C-9.83610916 44.4045134 -9.83610916 44.4045134 -9.8203125 42.6796875 C-9.8174826 41.52832306 -9.81465271 40.37695862 -9.81173706 39.19070435 C-9.80051408 35.50203188 -9.77540556 31.81359947 -9.75 28.125 C-9.73997294 25.62890975 -9.73084662 23.1328157 -9.72265625 20.63671875 C-9.70056784 14.50773016 -9.66706947 8.37888223 -9.625 2.25 C-6.22415742 0.42205846 -3.88748498 -0.02095679 0 0 Z " fill="#343C48" transform="translate(160.625,97.75)"/>
<path d="M0 0 C1.0725 0.00515625 2.145 0.0103125 3.25 0.015625 C4.85875 0.00789063 4.85875 0.00789063 6.5 0 C9.25 0.265625 9.25 0.265625 11.25 2.265625 C11.50396729 4.46679688 11.50396729 4.46679688 11.50878906 7.234375 C11.51509338 8.26884766 11.52139771 9.30332031 11.52789307 10.36914062 C11.5238446 11.48998047 11.51979614 12.61082031 11.515625 13.765625 C11.51753845 14.91224609 11.5194519 16.05886719 11.52142334 17.24023438 C11.52278622 19.66797098 11.51908267 22.09571484 11.51074219 24.5234375 C11.50004438 28.25016573 11.51063431 31.97641186 11.5234375 35.703125 C11.52211592 38.05729274 11.51955357 40.41146017 11.515625 42.765625 C11.51967346 43.88646484 11.52372192 45.00730469 11.52789307 46.16210938 C11.52158875 47.19658203 11.51528442 48.23105469 11.50878906 49.296875 C11.50640228 50.66682617 11.50640228 50.66682617 11.50396729 52.06445312 C11.25 54.265625 11.25 54.265625 9.25 56.265625 C6.5 56.53125 6.5 56.53125 3.25 56.515625 C1.64125 56.52335937 1.64125 56.52335937 0 56.53125 C-2.75 56.265625 -2.75 56.265625 -4.75 54.265625 C-5.00396729 52.06445312 -5.00396729 52.06445312 -5.00878906 49.296875 C-5.01509338 48.26240234 -5.02139771 47.22792969 -5.02789307 46.16210938 C-5.0238446 45.04126953 -5.01979614 43.92042969 -5.015625 42.765625 C-5.01753845 41.61900391 -5.0194519 40.47238281 -5.02142334 39.29101562 C-5.02278622 36.86327902 -5.01908267 34.43553516 -5.01074219 32.0078125 C-5.00004438 28.28108427 -5.01063431 24.55483814 -5.0234375 20.828125 C-5.02211592 18.47395726 -5.01955357 16.11978983 -5.015625 13.765625 C-5.01967346 12.64478516 -5.02372192 11.52394531 -5.02789307 10.36914062 C-5.02158875 9.33466797 -5.01528442 8.30019531 -5.00878906 7.234375 C-5.00719788 6.32107422 -5.00560669 5.40777344 -5.00396729 4.46679688 C-4.60048511 0.96975738 -3.40478742 0.32887151 0 0 Z " fill="#343C48" transform="translate(69.75,99.734375)"/>
<path d="M0 0 C2.75 -0.3984375 2.75 -0.3984375 6 -0.375 C7.60875 -0.38660156 7.60875 -0.38660156 9.25 -0.3984375 C10.1575 -0.26695313 11.065 -0.13546875 12 0 C14.44396979 3.66595469 14.8316352 6.73894128 14 11 C11.45767292 13.99097304 9.8425303 14.84202557 6 15.5625 C1.86392446 14.78698584 0.45000447 13.38677089 -2 10 C-2.53603554 5.55856266 -2.50031654 3.75047482 0 0 Z " fill="#FF8A48" transform="translate(153,82)"/>
<path d="M0 0 C2.53125 -0.3984375 2.53125 -0.3984375 5.5 -0.375 C6.4796875 -0.38273437 7.459375 -0.39046875 8.46875 -0.3984375 C9.72171875 -0.20121094 9.72171875 -0.20121094 11 0 C13.50031654 3.75047482 13.53603554 5.55856266 13 10 C10.9375 13 10.9375 13 8 15 C4.48044581 15 2.15079941 14.63108355 -0.9375 12.9375 C-2.6487882 9.81691564 -2.53955608 6.47558203 -2 3 C-1.34 2.01 -0.68 1.02 0 0 Z " fill="#279FF4" transform="translate(67,82)"/>
</svg>
