<svg xmlns="http://www.w3.org/2000/svg" viewBox="0 0 64 64" id="pencil"><path fill="#222" d="M8.69 59.53a4.21 4.21 0 0 1-4.17-4.88l1.77-11.18a4.14 4.14 0 0 1 1.18-2.32l34.8-34.8a6.45 6.45 0 0 1 9.1 0l6.28 6.28a6.45 6.45 0 0 1 0 9.1l-34.8 34.8a4.14 4.14 0 0 1-2.32 1.18L9.35 59.48a4.89 4.89 0 0 1-.66.05Zm11.52-3.79ZM46.82 8.47a2.44 2.44 0 0 0-1.73.71L10.3 44a.17.17 0 0 0-.06.12L8.47 55.28a.22.22 0 0 0 .25.25l11.18-1.77a.17.17 0 0 0 .1-.06l34.8-34.79a2.44 2.44 0 0 0 0-3.45l-6.26-6.28a2.41 2.41 0 0 0-1.72-.71Z"></path><path fill="#222" d="M53.88 24.67a2 2 0 0 1-1.42-.58L39.91 11.54a2 2 0 0 1 2.83-2.83l12.55 12.55a2 2 0 0 1 0 2.83 2 2 0 0 1-1.41.58zM21.71 56.84a2 2 0 0 1-1.41-.58L7.74 43.7a2 2 0 0 1 2.83-2.82l12.56 12.55a2 2 0 0 1-1.42 3.41z"></path><path fill="#222" d="M15.43 50.57A2 2 0 0 1 14 47.15L46.19 15A2 2 0 1 1 49 17.81L16.85 50a2 2 0 0 1-1.42.57Z"></path></svg>