<svg width="135" height="135" fill="none" xmlns="http://www.w3.org/2000/svg"><path d="M11.347 44.086c-3.81-2.299-10.528-.9-10.93 4.097 0 .2 0 .4.101.6-1.103 3.497.2 7.495 3.309 9.494 3.71 2.498 8.021.7 10.127-2.898 2.206-3.798 1.303-8.795-2.607-11.293zM9.542 53.28c-.802 1.599-2.306 1.998-3.81 1.1-1.705-1.1-2.206-2.8-1.805-4.598 1.404-.7 2.707-1.799 4.412-1.1 1.805.9 2.106 2.999 1.203 4.598zM49.85 39.588c-1.003-2.898-3.309-5.396-6.417-5.996-3.008-.5-6.417 1-8.022 3.498-.2.3-.3.5-.3.8C31 42.886 34.91 52.88 42.23 51.68c5.514-.799 9.325-6.795 7.62-12.092zm-9.526 7.696c-1.905-.1-3.409-1.9-4.01-3.598-.602-1.5-.502-2.898.2-4.098.301.1.602.1.903.1 1.504-.3 3.208-1.399 4.712-1.199 1.605.2 2.808 2.099 3.008 3.598.301 2.498-2.206 5.296-4.813 5.197zm-3.91 19.987c-2.406-4.897-9.225-5.896-12.634-1.3-.3.4-.3.9-.2 1.3-5.214 5.496.3 16.59 8.322 12.892 4.612-2.299 6.718-8.395 4.512-12.892zm-7.42 8.894c-1.805.8-3.61-.3-4.612-1.699-1.304-1.898-1.203-4.197.2-5.996.201.1.402.1.602.1 2.607-.1 4.913-1.499 6.217 1.5 1.203 2.298 0 5.096-2.407 6.095zm41.511-11.892c-2.306-6.696-11.63-7.695-15.14-1.4-.301.6-.301 1.3 0 1.8-.802 2.098-.903 4.397-.301 6.495.902 3.798 4.312 6.796 8.422 5.697 5.114-1.5 8.824-7.595 7.02-12.592zm-9.525 7.795c-1.705.1-2.808-1.899-3.309-3.298-.401-1-.501-2.099-.501-3.098h.4c2.507-.6 6.92-3.198 7.721 1.2.401 2.198-2.005 5.196-4.311 5.196zm27.273-38.276c-1.504-4.497-6.718-6.196-11.03-4.897-.3-.3-.802-.4-1.303 0-.2.2-.502.5-.702.8-.502.3-.702.7-.702 1.099-2.908 5.197-2.206 14.39 5.414 13.891 5.415-.3 10.128-5.496 8.323-10.893zm-9.626 5.796c-1.404-.3-2.206-1.998-2.507-3.198a7.706 7.706 0 010-3.697c2.306.5 5.615.2 6.618 2.698.902 2.199-1.905 4.597-4.111 4.197zm34.292 19.988c-1.304-3.998-5.515-5.297-9.325-3.998-.802.3-1.204.9-1.204 1.5-3.208 1.898-4.812 5.496-3.208 9.394 1.805 4.397 7.019 5.596 10.729 2.598 2.807-2.199 4.211-6.096 3.008-9.494zm-6.317 4.697c-.201.3-.502.7-1.103.9.2-.1-.502.1-.502.1-.401 0-.601 0-1.002-.2-1.103-.6-1.705-2.4-1.805-3.598-.1-1.2.301-2.199 1.003-2.998.2.1.501.2.802.3.902.1 1.905.3 2.607.799.501.4.601.7.702 1.199.2.9 0 2.398-.702 3.498zm23.663-37.676c-2.807-4.698-8.422-5.197-13.035-2.899-1.704.9-.802 3.298.903 3.398 2.306.1 5.615.1 6.617 2.499 1.103 2.498 0 5.196-2.607 6.196-5.013 1.998-9.826-3.998-7.018-8.395.702-1.2-1.103-2.198-1.905-1.1-2.407 3.599-2.708 7.896.1 11.394 3.008 3.697 8.021 4.897 12.233 2.798 5.414-2.399 7.72-8.795 4.712-13.891zm-82.521 62.76c-.802.1-1.504.8-1.504 1.599-.3-.1-.501-.1-.802.1-3.51 1.599-5.214 5.297-5.013 8.994.2 3.798 2.707 7.496 7.019 7.396 4.913-.2 8.623-4.498 8.723-9.195.1-4.397-3.51-9.194-8.423-8.894zm-.601 13.492c-1.905.099-2.808-1.999-3.109-3.598-.4-2.299.401-4.997 2.607-6.096.401-.2.602-.5.602-.9 1.805 1.5 3.41 3.498 3.71 5.897.3 2.298-1.404 4.597-3.81 4.697zm34.592-15.391c-.701.2-1.103.8-1.103 1.4-5.414 3.197-5.414 13.291 1.404 14.89 4.813 1.099 9.626-3.598 9.626-8.195s-5.314-9.294-9.927-8.095zm.702 11.093c-2.907-1-3.108-6.296-.902-8.095 1.805 1.3 4.412 2.898 4.311 5.397 0 1.4-1.804 3.198-3.409 2.698zM8.038 95.653c-3.208-.5-5.113 1.999-5.815 4.797-.903 3.498-.401 7.895 2.607 10.393 4.612 3.798 10.528.5 12.232-4.497 2.006-5.496-2.807-11.992-9.024-10.693zm4.412 9.994c-1.103 2.398-3.81 3.298-5.816 1.299-1.504-1.499-2.105-3.798-2.005-5.796 0-1.3.501-3.099 1.604-3.798 0 .5.2 1 .702 1.2 3.008 1.298 7.22 3.297 5.515 7.095zM132.972 83.86c-1.403-2.198-4.211-4.597-6.918-4.197-.602.1-.903.5-1.103.9-.201 0-.301-.1-.501 0-6.418 1.399-10.729 11.792-4.011 15.59 4.512 2.598 10.628-.1 12.934-4.398 1.204-2.398 1.103-5.396-.401-7.894zm-5.314 5.397c-.902 1.6-3.81 3.198-5.515 1.899-3.008-2.299-.2-7.595 2.808-8.395.902 2.099 4.011 4.098 2.707 6.496zm-86.03 34.378c-1.604-5.796-7.72-5.196-11.832-2.598-.3-.3-.802-.5-1.303-.1-3.108 2.299-4.01 5.697-2.306 9.094 1.604 3.198 5.214 5.597 8.823 4.797 4.713-.999 7.821-6.695 6.618-11.193zm-7.921 7.496c-3.61.499-6.819-3.998-5.214-6.996.2.2.501.3.802.3 2.406-.1 7.42-2.898 8.122.999.501 2.099-1.304 5.397-3.71 5.697zm43.616-9.794c-1.203-3.598-5.715-4.997-9.124-4.397-.401.1-.702.2-.802.399-.3-.599-1.203-.999-1.905-.499-3.309 2.598-5.816 6.096-3.81 10.393 1.804 3.698 6.116 4.997 9.926 3.598 3.61-1.499 7.12-5.397 5.715-9.494zm-7.52 5.097c-1.704.699-3.71.299-4.913-1.2-2.005-2.498.1-5.196 2.106-6.895.1.599.501 1.199 1.103 1.399 1.403.599 3.71 1.199 4.412 2.698.902 1.799-1.304 3.498-2.708 3.998zm47.728-8.995c-1.303-4.097-6.818-6.596-10.628-4.297-.602-.2-1.304 0-1.805.6-2.006 2.698-2.707 6.695-1.805 9.993 1.003 3.698 4.512 5.997 8.322 4.498 4.211-1.599 7.42-6.197 5.916-10.794zm-8.723 5.797h-.201c-.1-.1-.301-.2-.401-.3-.501-.5-.802-1.199-1.003-1.899-.401-1.399-.501-2.798-.1-4.097 1.705.599 3.81.699 4.613 2.498 1.002 1.799-1.404 3.298-2.908 3.798zM66.194 11.906C65.09 7.908 59.676 3.71 55.565 6.409c-.2.1-.4.3-.601.5-.602-.5-1.404-.6-2.106.1-3.008 2.698-4.311 6.896-2.908 10.693 1.504 4.197 5.916 6.096 10.127 4.597 4.312-1.499 7.42-5.696 6.117-10.393zm-8.122 5.097c-4.813 1.499-5.615-4.897-3.008-7.596.1.2.3.3.501.5 1.805 1 4.011 1.2 4.913 3.198.903 1.899-.601 3.398-2.406 3.898zM105.8 6.31C104.095 2.011 99.483-.587 94.77.112c-.902.1-1.203 1.1-.902 1.9-3.209 2.198-5.314 5.596-4.512 9.793.902 4.997 5.815 8.195 10.829 6.496 4.812-1.8 7.52-7.296 5.615-11.993zm-6.919 6.795c-2.507 1.2-4.713-.7-5.515-2.998-.902-2.698.602-5.097 2.607-6.696 1.705.8 3.41 1.7 4.412 3.398 1.203 2.199 1.003 4.997-1.504 6.296z" fill="#0EA5E9"/></svg>